<?xml version="1.0" encoding="UTF-8" standalone="no"?>
<!-- Created with Inkscape (http://www.inkscape.org/) -->

<svg
   width="245"
   height="245"
   viewBox="0 0 64.822917 64.822917"
   version="1.1"
   id="svg5"
   inkscape:version="1.2.2 (b0a8486541, 2022-12-01)"
   sodipodi:docname="icon.svg"
   xmlns:inkscape="http://www.inkscape.org/namespaces/inkscape"
   xmlns:sodipodi="http://sodipodi.sourceforge.net/DTD/sodipodi-0.dtd"
   xmlns="http://www.w3.org/2000/svg"
   xmlns:svg="http://www.w3.org/2000/svg">
  <sodipodi:namedview
     id="namedview7"
     pagecolor="#ffffff"
     bordercolor="#000000"
     borderopacity="0.25"
     inkscape:showpageshadow="2"
     inkscape:pageopacity="0.0"
     inkscape:pagecheckerboard="false"
     inkscape:deskcolor="#d1d1d1"
     inkscape:document-units="mm"
     showgrid="false"
     inkscape:zoom="2.0938382"
     inkscape:cx="18.148489"
     inkscape:cy="162.38122"
     inkscape:window-width="1920"
     inkscape:window-height="1029"
     inkscape:window-x="0"
     inkscape:window-y="27"
     inkscape:window-maximized="1"
     inkscape:current-layer="layer1" />
  <defs
     id="defs2">
    <style
       type="text/css"
       id="style9">
   <![CDATA[
    .fil0 {fill:black;fill-rule:nonzero}
   ]]>
  </style>
  </defs>
  <g
     inkscape:label="Layer 1"
     inkscape:groupmode="layer"
     id="layer1"
     transform="translate(-11.671975,-8.8858843)">
    <path
       sodipodi:type="star"
       style="fill:#aa0000;stroke-width:1.24602807;stroke:#ff6600;stroke-opacity:1;stroke-dasharray:none;stroke-dashoffset:0"
       id="path233"
       inkscape:flatsided="true"
       sodipodi:sides="6"
       sodipodi:cx="45.901051"
       sodipodi:cy="75.589584"
       sodipodi:r1="107.02852"
       sodipodi:r2="93.114815"
       sodipodi:arg1="0.69791125"
       sodipodi:arg2="1.22151"
       inkscape:rounded="0"
       inkscape:randomized="0"
       d="M 127.90482,144.36811 27.33898,180.99619 -54.664786,112.21766 -36.102716,6.8110548 64.463121,-29.817025 146.46689,38.961504 Z"
       inkscape:transform-center-x="4.2152349"
       inkscape:transform-center-y="-0.45598077"
       transform="matrix(0.30760778,-0.04964562,0.05640088,0.2948437,25.100224,21.152027)" />
    <g
       id="Layer_x0020_1"
       transform="matrix(0.05042831,0,0,0.05042831,20.560773,20.77001)"
       style="fill:#ffffff">
      <path
         class="fil0"
         d="m 208.42842,754.10992 c -104.35,-77.31 -165.620001,-198.42 -165.620001,-328.36 0,-128.87 60.460001,-249.46 163.470001,-326.809998 v -74.25 c 0,-11.47 9.3,-20.76 20.76,-20.76 h 106.13 c 11.46,0 20.76,9.29 20.76,20.76 v 4.34 c 31.74,-7.78 64.73,-11.8 97.4,-11.8 79.03,0 152.82,22.45 215.34,61.31 l 41.86,-60.43 c 15.45,-22.37 49.51,1.14 34.06,23.52 l -41.92,60.509998 c 100.44,77.47 159.18,196.39 159.18,323.61 0,225.62 -182.9,408.52 -408.52,408.52 -33.52,0 -66.98,-4.08 -99.49,-12.24 -3.79,4.99 -9.78,8.2 -16.53,8.2 h -106.12 c -11.47,0 -20.76,-9.29 -20.76,-20.76 z m 4.85,-607.76 c -82.07,70 -128.950001,171.43 -128.950001,279.4 0,105.7 45.100001,205.43 124.220001,275.31 1.15,-10.39 9.95,-18.47 20.64,-18.47 h 106.12 c 11.47,0 20.76,9.29 20.76,20.76 v 76.95 c 31.08,8.31 63.1,12.45 95.26,12.45 202.69,0 367,-164.31 367,-367 0,-113.54 -52.09,-219.77 -141.34,-289.43 l -65.81,95.02 c 58.22,47.93 91.84,118.83 91.84,194.41 0,139 -112.69,251.69 -251.69,251.69 -139,0 -251.69,-112.69 -251.69,-251.69 0,-138.99 112.69,-251.68 251.69,-251.68 45.84,0 88.82,12.26 125.84,33.67 l 65.82,-95.02 c -55.78,-34.219998 -121.42,-53.969998 -191.66,-53.969998 -33.07,0 -65.52,4.25 -97.4,13 v 59.059998 c 0,11.47 -9.3,20.76 -20.76,20.76 h -106.13 c -5.28,0 -10.09,-1.97 -13.76,-5.22 z m 99.12,-100.899998 h -64.6 v 64.599998 h 64.6 z m 2.15,678.659998 h -64.6 v 64.6 h 64.6 z m 153.81,-286.6 c -15.45,22.37 -49.51,-1.14 -34.06,-23.51 l 52.15,-75.29 c -10.85,-4.38 -22.7,-6.79 -35.12,-6.79 -51.83,0 -93.84,42.01 -93.84,93.83 0,51.83 42.01,93.84 93.84,93.84 51.83,0 93.84,-42.01 93.84,-93.84 0,-24.46 -9.37,-46.75 -24.71,-63.45 z m 42.14,-133.53 42.93,-61.96 c -30.23,-16.84 -65.04,-26.43 -102.1,-26.43 -116.07,0 -210.17,94.09 -210.17,210.16 0,116.07 94.1,210.17 210.17,210.17 116.07,0 210.17,-94.1 210.17,-210.17 0,-61.91 -27,-120.08 -74.07,-160.14 l -42.92,61.97 c 27.01,25.7 42.18,60.85 42.18,98.17 0,74.76 -60.61,135.37 -135.36,135.37 -74.75,0 -135.36,-60.61 -135.36,-135.37 0,-74.75 60.61,-135.36 135.36,-135.36 21.22,0 41.3,4.89 59.17,13.59 z"
         id="path13"
         style="fill:#ffffff" />
    </g>
    <path
       style="fill:#ffffff;stroke-width:0.0758071"
       d="m 41.939213,62.764322 c -0.145928,-0.01737 -0.606455,-0.06748 -1.023395,-0.111355 -0.416938,-0.04387 -1.17297,-0.164162 -1.680069,-0.267312 l -0.922,-0.187545 -0.28254,0.191736 -0.28254,0.191738 h -2.9559 c -2.831295,0 -2.966323,-0.0064 -3.20315,-0.152809 -0.442626,-0.273557 -0.490813,-0.486755 -0.490813,-2.171543 V 58.75177 l -0.546619,-0.41616 c -0.792138,-0.603082 -2.330399,-2.112718 -3.076935,-3.019679 -3.182135,-3.865952 -4.836807,-8.671994 -4.68895,-13.619188 0.09437,-3.157391 0.734615,-5.728237 2.133343,-8.566196 0.682723,-1.385215 1.448149,-2.596524 2.369622,-3.749998 0.703602,-0.880751 2.266159,-2.451844 3.089372,-3.106252 l 0.606457,-0.4821 0.0379,-2.117065 0.0379,-2.117065 0.283162,-0.259372 0.283163,-0.259372 3.014445,3.26e-4 c 2.889786,3.25e-4 3.02482,0.0066 3.265378,0.153274 0.265523,0.161884 0.469232,0.542289 0.469232,0.876239 0,0.179675 0.02192,0.195945 0.208469,0.154723 4.030865,-0.890758 7.809317,-0.67302 11.693237,0.673838 0.854255,0.296236 2.684844,1.149554 3.406375,1.587861 0.242943,0.147579 0.461693,0.268326 0.486111,0.268326 0.02442,0 0.545556,-0.720145 1.158083,-1.600325 1.139033,-1.636747 1.378431,-1.886232 1.809968,-1.886232 0.488428,0 1.022534,0.542446 1.023112,1.039086 3.25e-4,0.244503 -0.04799,0.321433 -1.779171,2.835428 l -0.52864,0.767681 0.452833,0.385892 c 0.85736,0.730622 2.401384,2.28818 2.988543,3.014739 2.287778,2.830933 3.763783,6.173603 4.366789,9.889355 0.166848,1.028117 0.23276,4.021725 0.113034,5.133714 -0.940983,8.739629 -7.194148,15.867133 -15.711455,17.908287 -1.409693,0.337829 -2.706884,0.494874 -4.342892,0.525778 -0.833878,0.01576 -1.635538,0.01442 -1.781466,-0.0029 z m 4.358906,-2.218859 c 3.032427,-0.521138 5.718231,-1.663216 8.149258,-3.465287 0.929235,-0.688823 2.880971,-2.609183 3.538613,-3.481726 2.092197,-2.775877 3.294601,-5.702568 3.752926,-9.134749 0.136205,-1.019977 0.113341,-3.698494 -0.04032,-4.723173 -0.612317,-4.083283 -2.306574,-7.55614 -5.086713,-10.426653 -0.698184,-0.720882 -1.792868,-1.681615 -1.910297,-1.676546 -0.03558,0.0015 -0.806506,1.07675 -1.713161,2.389363 l -1.648465,2.386571 0.819196,0.813484 c 1.346338,1.336949 2.229617,2.655637 2.898226,4.326889 2.678048,6.694038 -0.806401,14.276797 -7.648866,16.645242 -5.38188,1.862879 -11.367436,-0.156541 -14.577619,-4.918231 -2.529053,-3.751364 -2.856124,-8.518774 -0.863553,-12.587169 1.729421,-3.531102 4.95643,-6.019787 8.910565,-6.871872 0.680056,-0.146547 1.027815,-0.17201 2.387923,-0.174855 1.358714,-0.0028 1.714748,0.02159 2.430137,0.166725 1.120191,0.227269 2.089976,0.553841 3.131058,1.054378 0.473637,0.227718 0.870804,0.403567 0.882593,0.390775 0.01178,-0.01279 0.763629,-1.095087 1.670754,-2.4051 l 1.649319,-2.381842 -0.16555,-0.134055 c -0.262366,-0.212449 -1.869028,-1.010442 -2.703709,-1.34287 -1.31852,-0.525126 -2.954409,-0.946802 -4.50668,-1.161667 -0.420293,-0.05818 -1.414613,-0.09893 -2.387922,-0.09786 -1.759516,0.0019 -2.760503,0.108192 -4.164123,0.442084 l -0.687528,0.163548 -0.0379,1.679434 c -0.05695,2.523359 0.176795,2.37265 -3.676643,2.370526 -2.604147,-0.0015 -2.827853,-0.01198 -3.12617,-0.147401 l -0.321311,-0.145854 -0.932774,0.924541 c -1.596908,1.582816 -2.653737,3.046553 -3.623116,5.018121 -1.289633,2.622914 -1.889447,5.221969 -1.889447,8.187161 0,2.158588 0.264173,3.847267 0.907222,5.799239 0.724059,2.197882 1.699173,4.01347 3.116076,5.801904 0.497006,0.627329 2.0986,2.30945 2.19889,2.30945 0.03152,0 0.119818,-0.127474 0.196216,-0.283276 0.0764,-0.155801 0.254817,-0.36048 0.396488,-0.454841 0.25623,-0.170666 0.27267,-0.171568 3.129476,-0.171568 3.179335,0 3.268445,0.01179 3.547342,0.469232 0.143697,0.235691 0.153007,0.378353 0.153274,2.348265 l 3.26e-4,2.097329 0.679332,0.159489 c 0.622496,0.146145 1.713572,0.327537 2.46666,0.410082 0.166776,0.01828 1.087831,0.02331 2.04679,0.01117 1.336585,-0.01692 1.955899,-0.05856 2.653248,-0.178403 z m -9.817013,-1.602617 v -1.667755 h -1.667755 -1.667754 v 1.667755 1.667754 h 1.667754 1.667755 z m 8.947924,-6.28348 c 3.428088,-0.689796 6.271782,-3.000378 7.662379,-6.225898 0.576438,-1.337059 0.834094,-2.642539 0.832886,-4.220009 -0.002,-2.632387 -0.846502,-4.904857 -2.586558,-6.960314 -0.448131,-0.52936 -1.051621,-1.099202 -1.164105,-1.099202 -0.04372,0 -2.095555,2.948647 -2.14963,3.089178 -0.02006,0.05214 0.15563,0.3023 0.390429,0.555912 1.121281,1.211117 1.829874,3.269379 1.678584,4.875809 -0.194797,2.068386 -1.125533,3.780435 -2.700275,4.967038 -1.132965,0.853714 -2.279225,1.272596 -3.686905,1.347317 -2.066643,0.1097 -3.840264,-0.589262 -5.258396,-2.072266 -0.812466,-0.849632 -1.250541,-1.592551 -1.625395,-2.75646 -0.268935,-0.835023 -0.342827,-2.223359 -0.167582,-3.14857 0.767972,-4.054526 4.978782,-6.5238 8.836602,-5.181895 0.360492,0.125394 0.703931,0.234519 0.763198,0.242501 0.106422,0.01434 0.32325,-0.274529 1.622754,-2.161873 l 0.663386,-0.963476 -0.307831,-0.157042 c -2.556105,-1.304027 -5.755647,-1.528163 -8.415955,-0.589557 -1.539613,0.543205 -2.790001,1.334415 -3.985505,2.521918 -1.56346,1.552997 -2.475604,3.246814 -2.959685,5.496028 -0.197203,0.916275 -0.196077,3.101103 0.0021,4.055677 0.308433,1.485721 0.978818,3.024021 1.837721,4.216933 0.502246,0.697559 1.746274,1.930454 2.45213,2.430185 1.378089,0.975659 3.071735,1.631915 4.851651,1.879922 0.737893,0.102815 2.578054,0.02635 3.414009,-0.141856 z m -0.881036,-5.820534 c 0.802189,-0.199513 1.465321,-0.593603 2.131929,-1.266977 0.69611,-0.703176 1.027967,-1.271046 1.249909,-2.138828 0.246578,-0.964114 0.184935,-2.003812 -0.173835,-2.931977 -0.175697,-0.454539 -0.794796,-1.435177 -0.927229,-1.468707 -0.04169,-0.01055 -0.686206,0.869525 -1.43225,1.955735 -1.379908,2.009094 -1.60778,2.261849 -2.039687,2.262425 -0.670011,9.77e-4 -1.246977,-0.822788 -0.96123,-1.372265 0.05191,-0.09982 0.691252,-1.046639 1.420759,-2.104036 1.020223,-1.478783 1.302239,-1.93759 1.221803,-1.987737 -0.224656,-0.140065 -1.150673,-0.297013 -1.752413,-0.297013 -1.453133,0 -2.882942,0.70266 -3.734247,1.835148 -0.447737,0.595619 -0.586192,0.867908 -0.801935,1.577087 -0.20302,0.667354 -0.239372,1.76479 -0.08032,2.424908 0.189159,0.785099 0.679106,1.657292 1.259421,2.241997 1.243605,1.253011 2.879685,1.702908 4.619328,1.27024 z M 36.329492,24.678061 v -1.667754 h -1.667755 -1.667754 v 1.667754 1.667755 h 1.667754 1.667755 z"
       id="path943" />
    <path
       style="fill:#ffffff;stroke-width:0.0758071"
       d="M 41.939213,62.764322 C 41.793285,62.746952 41.332758,62.696812 40.915818,62.6529 40.49888,62.60899 39.741253,62.489787 39.232202,62.387997 l -0.925546,-0.185074 -0.278993,0.189331 -0.278994,0.18933 h -2.9559 c -2.831295,0 -2.966323,-0.0064 -3.20315,-0.152809 -0.442626,-0.273557 -0.490813,-0.486755 -0.490813,-2.171543 V 58.75177 L 30.552599,58.33561 C 29.7905,57.754959 28.315655,56.319786 27.554156,55.417818 24.346461,51.618423 22.609298,46.579564 22.78457,41.583033 c 0.157946,-4.502621 1.698291,-8.683186 4.496955,-12.204935 0.65586,-0.825313 2.314526,-2.488949 3.097114,-3.106394 l 0.606457,-0.47848 0.0379,-2.11758 0.0379,-2.117577 0.283162,-0.259372 0.283163,-0.259372 3.014445,3.26e-4 c 2.889786,3.25e-4 3.02482,0.0066 3.265378,0.153274 0.262902,0.160286 0.469232,0.5417 0.469232,0.867403 0,0.224901 8e-6,0.224903 0.620704,0.08107 3.717042,-0.861324 8.228318,-0.488642 11.884883,0.981824 0.88366,0.355359 2.160133,0.977687 2.817352,1.373568 0.234771,0.141415 0.445546,0.257118 0.46839,0.257118 0.02284,0 0.542036,-0.718963 1.153761,-1.597696 1.140018,-1.637618 1.381723,-1.888861 1.817153,-1.888861 0.488118,0 1.022534,0.542411 1.023112,1.038418 3.25e-4,0.240695 -0.07613,0.362332 -1.867101,2.972034 l -0.437572,0.637606 0.413361,0.345749 c 0.794382,0.664452 2.441445,2.327211 3.050007,3.079077 2.262261,2.794976 3.739709,6.150052 4.341659,9.859297 0.166848,1.028117 0.23276,4.021725 0.113034,5.133714 -0.596673,5.541758 -3.302209,10.494638 -7.621992,13.95317 -2.867026,2.295418 -6.20292,3.744914 -9.892818,4.298574 -0.976903,0.146583 -3.660678,0.25799 -4.321003,0.179372 z m 4.358906,-2.21995 c 3.782142,-0.645448 7.060356,-2.281076 9.783139,-4.881185 3.087972,-2.948848 5.003348,-6.677745 5.616413,-10.934162 0.159847,-1.109795 0.179138,-3.677108 0.0356,-4.737941 -0.347367,-2.567279 -1.156226,-4.960427 -2.392695,-7.0792 -1.019808,-1.747508 -2.476602,-3.499528 -3.949833,-4.750281 -0.636045,-0.539994 -0.652363,-0.548411 -0.788198,-0.406576 -0.07629,0.07966 -0.840219,1.159821 -1.697621,2.400362 l -1.558914,2.255528 0.887371,0.892502 c 1.328291,1.335975 2.194568,2.640092 2.830974,4.26184 1.818334,4.633644 0.814819,9.801132 -2.597406,13.375051 -2.646274,2.771675 -6.302154,4.193876 -10.046087,3.908109 C 39.33382,54.61279 36.574635,53.348221 34.397726,51.17131 29.600116,46.3737 29.414985,38.74833 33.974453,33.737003 c 1.804486,-1.983316 4.183294,-3.336107 6.865556,-3.904329 0.977368,-0.207049 2.913339,-0.283681 3.952862,-0.156466 1.482231,0.181392 2.91935,0.61895 4.298999,1.308913 0.327442,0.163753 0.604268,0.28705 0.615168,0.273991 0.01091,-0.01305 0.760649,-1.091451 1.666108,-2.396429 1.305252,-1.881177 1.628339,-2.394315 1.559643,-2.477088 -0.143431,-0.172824 -2.33141,-1.232445 -3.209718,-1.554439 -1.030219,-0.377687 -2.621485,-0.77767 -3.80399,-0.956176 -0.672622,-0.101537 -1.354177,-0.137323 -2.615342,-0.137323 -1.801665,0 -2.787315,0.103129 -4.202027,0.439659 l -0.687528,0.163548 -0.0379,1.679434 c -0.05695,2.523359 0.176795,2.37265 -3.676643,2.370526 -2.598531,-0.0015 -2.828358,-0.01222 -3.1243,-0.146563 l -0.319439,-0.145017 -0.896146,0.8858 c -1.579015,1.560787 -2.674729,3.068351 -3.619064,4.97938 -0.890459,1.802004 -1.357504,3.2305 -1.722546,5.268547 -0.230606,1.287485 -0.250568,4.49704 -0.03607,5.799282 0.32528,1.974798 0.842837,3.598151 1.715987,5.3823 0.951794,1.944849 2.287949,3.787203 3.789262,5.224816 l 0.548032,0.524779 0.16554,-0.295117 c 0.09105,-0.162312 0.280934,-0.372879 0.42197,-0.467923 0.255704,-0.172318 0.264556,-0.172808 3.128322,-0.172808 3.179335,0 3.268445,0.01179 3.547342,0.469232 0.143697,0.235691 0.153007,0.378353 0.153274,2.348265 l 3.26e-4,2.097329 0.679332,0.159489 c 0.6209,0.145769 1.704956,0.326129 2.46666,0.41039 0.166776,0.01845 1.087831,0.02298 2.04679,0.01008 1.32391,-0.01782 1.962512,-0.06083 2.653248,-0.178709 z m -9.817013,-1.601526 v -1.667755 h -1.667755 -1.667754 v 1.667755 1.667754 h 1.667754 1.667755 z m 8.923631,-6.287583 c 4.183379,-0.852518 7.382614,-4.013244 8.32973,-8.229466 0.190786,-0.849308 0.229042,-2.96537 0.07081,-3.916861 -0.360014,-2.164902 -1.372013,-4.14872 -2.922823,-5.729585 -0.337435,-0.343975 -0.643252,-0.625408 -0.679596,-0.625408 -0.03634,0 -0.549621,0.701166 -1.140616,1.558148 -0.960887,1.393344 -1.063182,1.571746 -0.967166,1.686707 0.05906,0.07071 0.254074,0.299124 0.433374,0.507592 1.134269,1.318797 1.738434,3.317298 1.527926,5.054189 -0.342811,2.828508 -2.241649,5.056407 -4.971176,5.832657 -0.697233,0.198285 -2.051128,0.269561 -2.806311,0.147737 -1.489225,-0.240237 -2.775415,-0.919694 -3.831455,-2.024042 -0.815049,-0.852336 -1.335147,-1.747118 -1.669884,-2.872895 -0.202601,-0.681377 -0.275678,-2.097168 -0.148834,-2.883474 0.665554,-4.125741 4.938053,-6.695582 8.862343,-5.330556 0.360492,0.125394 0.702045,0.234519 0.759007,0.242501 0.09877,0.01384 0.368308,-0.346607 1.705503,-2.280727 l 0.591059,-0.854907 -0.631512,-0.291075 c -4.292763,-1.978614 -9.231126,-1.03662 -12.386406,2.362708 -1.31348,1.415072 -2.208305,3.143992 -2.619739,5.06167 -0.228312,1.064158 -0.249791,3.186796 -0.04216,4.166102 0.468133,2.207941 1.369665,3.88995 2.931117,5.468656 1.208028,1.221376 2.300448,1.930966 3.867065,2.511878 0.777111,0.288159 1.567666,0.481613 2.396169,0.586359 0.815924,0.103155 2.470808,0.02995 3.343566,-0.147908 z m -0.85018,-5.818041 c 1.604667,-0.39593 3.064615,-1.918465 3.412042,-3.558317 0.29339,-1.384796 -0.08346,-3.007125 -0.937797,-4.037172 l -0.212832,-0.256609 -0.455537,0.635643 c -0.250545,0.349603 -0.875699,1.244978 -1.389233,1.989721 -0.949715,1.377313 -1.207972,1.639475 -1.615589,1.640015 -0.607935,8.14e-4 -1.152796,-0.666574 -1.009695,-1.236739 0.0244,-0.0972 0.631304,-1.027004 1.348685,-2.06624 0.717379,-1.039235 1.306683,-1.955634 1.309563,-2.036441 0.0085,-0.240063 -0.537145,-0.366217 -1.624616,-0.375574 -0.784052,-0.0067 -1.039169,0.02086 -1.478238,0.15998 -3.812779,1.208062 -4.538119,6.278008 -1.216058,8.499938 1.139071,0.761857 2.480756,0.984399 3.869305,0.641795 z M 36.329492,24.678061 v -1.667754 h -1.667755 -1.667754 v 1.667754 1.667755 h 1.667754 1.667755 z"
       id="path945" />
    <path
       style="fill:#ffff00;stroke-width:0.0758071"
       d="m 33.004939,23.036956 c -0.01725,1.091342 -0.04847,2.214668 0.01569,3.297904 1.091342,0.01726 2.214668,0.04847 3.297903,-0.01569 0.01726,-1.091341 0.04847,-2.214668 -0.01569,-3.297903 -1.090055,-0.01726 -2.216141,-0.04841 -3.297902,0.01569 z"
       id="path1095" />
    <path
       style="fill:#0000ff;stroke-width:0.0758071"
       d="m 33.156552,57.301742 c -0.01725,1.091341 -0.04847,2.214668 0.01569,3.297903 1.091342,0.01725 2.214668,0.04847 3.297904,-0.01569 0.01726,-1.091342 0.04847,-2.214668 -0.01569,-3.297903 -1.090054,-0.01726 -2.21614,-0.04841 -3.297902,0.01569 z"
       id="path1097" />
    <path
       style="fill:#00ff00;stroke-width:0.0758071"
       d="m 34.111247,22.967813 c -0.343913,0.05363 -0.780826,-0.08723 -1.077881,0.101274 -0.158506,1.054444 -0.12952,2.13845 -0.03183,3.199589 0.541166,0.226142 1.212144,0.09353 1.807215,0.124315 0.490727,-0.04973 1.043569,0.05551 1.500459,-0.118836 0.105099,-1.04804 0.08184,-2.123364 0.0028,-3.175012 -0.245813,-0.205854 -0.666137,-0.06282 -0.97287,-0.122192 -0.409228,-0.0087 -0.818593,-0.01123 -1.227904,-0.0091 z"
       id="path1168" />
    <path
       style="fill:#ff6600;stroke-width:0.0758071"
       d="m 34.262863,57.232597 c -0.343913,0.05363 -0.780828,-0.08723 -1.077883,0.101274 -0.158506,1.054444 -0.12952,2.138452 -0.03183,3.199591 0.541167,0.22614 1.212145,0.09353 1.807216,0.124313 0.490727,-0.04973 1.043568,0.05551 1.500459,-0.118836 0.1051,-1.048038 0.08184,-2.123362 0.0028,-3.175012 -0.245813,-0.205854 -0.666137,-0.06282 -0.972871,-0.122192 -0.409226,-0.0087 -0.818592,-0.01123 -1.227901,-0.0091 z"
       id="path1239" />
    <path
       style="fill:#ffdd55;stroke-width:0.0758071"
       d="m 34.59585,22.927244 c -0.514331,0.03744 -1.068328,-0.04531 -1.559374,0.119485 -0.177397,1.027347 -0.08142,2.102487 -0.135327,3.146881 0.377623,0.336302 0.97839,0.148861 1.449808,0.211364 0.638175,-0.0233 1.297595,0.03951 1.922864,-0.09262 0.166992,-0.589808 0.06233,-1.254916 0.09865,-1.871042 -0.05554,-0.45927 0.101783,-1.003497 -0.138627,-1.416942 -0.520278,-0.146203 -1.100877,-0.07219 -1.637994,-0.09713 z"
       id="path1379" />
  </g>
</svg>
